<svg width="1013" height="1880" viewBox="0 0 1013 1880" fill="none" xmlns="http://www.w3.org/2000/svg">
<path d="M601.199 0.214478C601.406 0.317983 606.581 0.732087 612.895 1.0426C624.798 1.66363 626.868 2.18105 649.64 10.8755C659.887 14.8087 667.339 17.0858 684.314 21.433C700.047 25.4697 713.399 30.5415 738.654 41.9271C742.38 43.5832 747.038 45.5498 749.005 46.2743C757.078 49.3794 777.158 60.4546 787.819 67.8035C799.929 76.0839 819.388 92.7482 828.704 102.892C836.156 110.862 850.957 131.666 856.236 141.499C860.169 148.641 862.55 154.437 873.004 181.349C874.971 186.42 879.732 197.185 883.665 205.155C891.738 221.612 895.258 229.996 897.017 236.724C898.777 243.555 905.298 261.151 909.645 270.777C916.89 286.924 921.444 299.448 923.722 310.213C927.034 325.635 929.932 340.954 931.174 350.58C931.898 355.444 932.83 361.448 933.244 364.035C934.176 369.004 933.658 501.49 932.726 508.425C931.588 516.292 931.795 563.283 933.037 574.669C933.658 580.879 934.486 589.056 934.797 592.782C936.039 609.757 936.97 614.622 943.18 639.67C946.803 654.264 949.805 667.409 949.805 668.858C949.805 675.586 957.464 702.705 962.95 715.436C976.302 746.591 985.204 762.531 997.417 777.539C1008.18 790.787 1011.39 798.343 1012.32 813.559C1013.05 824.116 1011.08 829.499 1004.25 835.812C999.694 839.953 997.521 841.091 992.345 842.23C988.93 842.954 983.858 843.368 981.167 843.058C974.129 842.437 963.675 837.054 957.568 830.948L952.392 825.876V837.365C952.289 867.795 945.975 891.084 934.9 901.538C919.064 916.443 892.566 916.65 879.835 901.952C873.107 894.086 863.999 872.246 861.411 857.548C860.997 855.375 860.273 853.408 859.652 852.994C859.031 852.684 858.72 852.994 858.824 853.719C859.445 857.031 854.373 877.525 850.75 886.219C843.401 904.022 838.847 910.854 831.188 915.304C824.874 919.031 821.044 919.962 811.522 919.962C798.17 919.962 792.787 916.857 786.577 905.575C782.747 898.536 782.333 898.433 782.851 904.54C783.886 918.513 783.058 922.343 774.156 943.665C764.634 966.539 755.629 977.408 743.726 980.202C739.689 981.237 734.824 977.304 730.891 969.955C727.269 963.124 725.198 956.085 725.198 950.703C725.198 943.872 723.542 944.182 720.644 951.531C719.092 955.464 716.297 960.847 714.33 963.538C711.432 967.471 709.776 968.713 705.325 970.059C697.977 972.232 693.526 972.025 687.419 969.127C681.002 966.125 675.412 960.122 671.479 951.738C667.96 944.493 667.546 944.907 666.925 955.671C666.097 969.231 662.578 971.922 646.224 971.508C633.803 971.197 629.767 969.127 622.418 959.087C621.693 958.155 619.727 954.947 618.071 951.842L614.965 946.252V928.657C614.965 918.927 615.172 904.54 615.483 896.57C615.793 888.6 615.69 881.665 615.379 881.251C614.965 880.734 609.169 884.977 602.441 890.67L590.124 900.917L586.708 915.304C578.531 949.565 576.565 973.474 581.533 978.443C582.361 979.271 588.572 981.341 595.299 982.997C606.581 985.895 610.101 986.205 633.596 987.137C690.317 989.207 707.292 996.97 720.644 1027.5L723.646 1034.23L723.439 1062.18C723.232 1077.5 722.714 1093.64 722.093 1097.89C721.576 1102.13 720.437 1113.21 719.506 1122.42C718.678 1131.73 717.746 1140.32 717.539 1141.57C717.229 1142.91 716.815 1146.54 716.504 1149.64C714.951 1167.03 714.537 1170.34 713.192 1176.14C712.157 1181 711.95 1184.42 712.778 1190.32C714.227 1202.01 714.227 1220.54 712.778 1229.75C710.19 1246.52 701.185 1263.08 685.556 1279.33C681.726 1283.37 678.621 1287.1 678.621 1287.61C678.621 1288.03 679.139 1289.37 679.76 1290.61C681.519 1293.93 680.07 1297.34 675.93 1299.31C672.411 1300.96 672.204 1301.38 672.721 1305.11C673.032 1307.28 674.688 1311.32 676.447 1314.01C682.347 1323.32 689.075 1346.61 690.524 1363.38C690.938 1367.93 691.973 1374.66 692.801 1378.39C697.666 1399.61 699.426 1421.24 699.322 1459.64C699.322 1475.58 699.115 1490.28 698.805 1492.24C698.598 1494.21 697.149 1509.32 695.699 1525.88C692.491 1561.9 689.903 1582.71 686.487 1600.61C685.038 1607.86 682.968 1619.24 681.83 1625.76C679.967 1636.11 674.998 1656.61 667.443 1684.76C665.372 1692.21 663.199 1705.46 659.473 1731.34C657.196 1747.38 657.195 1768.91 659.369 1788.06C661.646 1806.79 661.129 1811.97 656.885 1815.59C655.229 1816.94 653.262 1818.28 652.538 1818.49C650.882 1819.11 653.262 1822.94 659.473 1829.67C665.269 1836.09 669.409 1842.71 670.03 1846.75C670.548 1849.96 670.237 1850.37 665.062 1853.68C655.436 1859.69 638.979 1867.04 629.456 1869.52C624.488 1870.76 623.039 1870.76 617.967 1869.42C610.411 1867.45 608.031 1865.79 594.264 1852.44C586.501 1844.99 580.912 1840.54 576.875 1838.57C570.044 1835.26 565.283 1830.6 562.178 1824.18C560.522 1820.66 559.383 1819.73 556.071 1819.01C550.585 1817.66 544.685 1811.56 543.236 1805.76C542.615 1803.28 541.58 1792.82 540.959 1782.57C539.821 1763.01 538.889 1753.08 536.301 1733.41C535.473 1726.89 534.335 1717.57 533.817 1712.71C533.196 1707.84 532.161 1701.12 531.437 1697.7L530.091 1691.49L529.47 1696.67C529.056 1699.46 528.124 1715.61 527.503 1732.37C526.054 1769.33 522.639 1796.55 518.395 1804.62C516.325 1808.55 511.357 1811.76 505.664 1812.59L501.834 1813.11L503.283 1817.15C506.078 1825.43 502.455 1836.81 495.417 1841.47C491.484 1844.06 486.308 1845.92 467.47 1851.41C455.257 1854.92 450.599 1857.51 441.387 1865.59C434.556 1871.49 429.277 1874.18 419.03 1876.97C406.092 1880.39 395.741 1879.97 387.978 1875.73C377.421 1870.04 376.8 1862.89 385.287 1845.92C388.496 1839.5 391.497 1833.81 392.015 1833.19C392.636 1832.36 392.015 1831.84 389.945 1831.43C386.115 1830.6 383.01 1827.39 382.182 1823.25C380.94 1816.94 381.561 1802.65 383.838 1788.58C385.701 1776.36 386.012 1770.15 386.012 1745.83C386.012 1728.86 385.287 1709.6 384.356 1698.22C383.424 1687.66 382.182 1670.69 381.561 1660.44C378.87 1613.45 375.351 1562.83 374.316 1555.38C373.798 1551.65 372.66 1540.48 371.728 1530.54C370.9 1520.6 369.658 1509.63 369.14 1506.22C366.346 1488.31 365 1429.73 367.07 1412.54C367.691 1407.68 368.83 1395.57 369.658 1385.63C371.314 1364.52 374.419 1351.06 382.493 1329.33C385.494 1321.46 387.668 1314.73 387.357 1314.52C387.15 1314.21 385.391 1313.28 383.424 1312.35C379.18 1310.18 378.559 1306.66 381.457 1300.86C382.7 1298.58 383.631 1296.31 383.631 1295.79C383.631 1295.17 379.905 1289.68 375.247 1283.58C364.483 1269.19 361.481 1263.08 353.304 1239.17C349.578 1228.3 344.92 1214.85 342.954 1209.16C340.987 1203.46 337.157 1191.77 334.466 1183.28C331.775 1174.69 328.359 1164.44 327.014 1160.51C323.081 1149.23 318.526 1129.56 316.87 1116.52C316.042 1110 314.8 1101.1 314.283 1096.85C312.937 1087.54 313.455 1083.6 317.802 1066.01C321.528 1051 324.426 1045.51 329.912 1042.82C331.878 1041.89 341.09 1038.06 350.509 1034.44C385.908 1020.47 406.506 1010.53 425.551 998.109C441.284 987.758 448.839 981.341 448.839 978.236C448.839 975.751 439.006 947.287 434.038 935.488C429.587 925.034 421.204 915.822 410.025 909.301C405.988 906.92 400.813 903.712 398.329 901.952C395.845 900.296 393.671 899.157 393.361 899.365C392.843 899.882 395.741 913.131 403.918 947.184C409.3 970.059 409.507 970.99 407.644 972.646C406.609 973.681 404.746 977.304 403.401 980.823C400.399 989.104 396.569 992.726 384.563 998.833C374.005 1004.11 371.832 1004.53 366.553 1002.04C363.965 1000.8 362.62 1000.7 360.963 1001.52C358.272 1002.97 343.885 1005.77 339.124 1005.77C330.015 1005.77 318.319 994.9 310.039 978.857C307.037 973.164 306.52 972.543 306.209 974.716C305.485 980.202 303.725 983.825 299.792 987.655C296.273 991.07 295.134 991.588 291.097 991.588C284.68 991.484 278.884 988.586 268.74 980.306C258.493 972.025 252.283 965.711 247.729 959.294C243.899 953.808 242.967 955.05 245.866 961.675C247.108 964.262 248.039 966.746 248.039 967.16C248.039 967.574 248.66 969.127 249.385 970.576C251.662 974.923 252.179 977.511 254.146 994.9C256.423 1014.67 255.802 1021.71 251.455 1027.92C245.866 1035.89 239.034 1037.54 229.926 1033.3C223.509 1030.4 221.128 1027.19 213.469 1011.46C210.26 1004.63 206.948 997.902 206.12 996.452C205.395 995.003 204.05 990.346 203.221 986.102C200.53 973.164 197.425 957.017 196.287 949.668C194.838 940.146 193.078 936.005 194.01 944.182C194.424 947.598 194.734 958.984 194.734 969.541C194.631 985.17 194.32 989.828 192.767 994.9C190.076 1003.49 187.489 1008.36 182.727 1013.53C177.345 1019.43 171.445 1020.78 156.023 1019.74C128.18 1017.98 120.107 1014.36 110.584 999.247C104.581 989.725 102.925 981.548 103.235 963.124C103.339 954.636 103.132 947.494 102.925 947.184C102.304 946.666 101.269 948.737 95.0585 962.296C90.8148 971.508 88.8482 973.164 84.0869 971.611C82.0168 970.99 76.5311 967.367 71.7698 963.641C54.6915 950.186 53.0354 948.012 48.7917 933.521C46.9286 927.518 46.618 927.104 44.2374 927.518C31.5063 929.899 26.0205 928.967 20.7417 923.274C17.6365 919.859 6.25099 901.021 2.73181 893.465C0.765212 889.014 0.351165 886.323 0.0406494 873.281C-0.269866 856.203 1.17923 844.3 5.11243 833.432C10.2877 819.148 15.256 802.173 18.2576 788.407C19.9137 780.747 22.0873 771.846 23.0189 768.741C24.1574 764.911 24.7785 757.148 25.1925 744.417C25.6065 728.788 25.296 721.853 23.0189 701.152C20.6382 679.83 20.2242 671.55 20.0172 639.566C19.8102 596.405 21.0523 578.912 26.0205 555.52C26.745 551.794 27.6766 545.066 28.0906 540.512C28.9187 529.954 30.4712 520.742 32.2308 516.499C35.957 507.597 41.3393 482.238 43.0989 465.47C43.6164 460.088 44.5479 452.325 45.0654 448.392C45.6865 444.356 46.204 436.903 46.204 431.831C46.204 423.965 47.446 414.132 49.9302 401.297C50.2407 399.848 50.6548 393.534 50.9653 387.324C51.6898 372.005 52.8284 365.07 57.0721 351.511C59.0387 345.197 61.4193 335.985 62.3508 331.017C63.2824 326.152 65.5595 317.251 67.4226 311.248C69.3892 305.244 71.6663 296.861 72.7014 292.617C73.6329 288.373 76.117 280.196 78.2906 274.503C80.4643 268.811 83.9834 259.495 86.157 253.802C88.2271 248.109 92.8849 237.552 96.5076 230.41C100.441 222.44 104.374 212.607 106.444 205.569C108.204 199.048 111.93 189.319 114.621 183.936C117.209 178.554 121.349 169.445 123.833 163.753C129.215 151.229 131.078 148.537 142.153 137.773C150.434 129.596 162.44 120.902 178.691 111.483C182.934 108.998 188.524 105.272 191.111 103.202C195.873 99.3725 202.083 95.3358 206.637 93.0587C208.086 92.3342 212.33 88.9185 215.953 85.6063C219.679 82.1907 223.302 79.4995 223.923 79.396C224.647 79.396 225.268 79.0855 225.268 78.568C225.268 77.0154 235.619 72.3577 244.417 69.8735C251.765 67.9069 260.77 67.3893 334.984 65.4227C345.541 65.1122 354.857 64.6982 355.685 64.3877C356.513 64.0772 359.928 63.6632 363.344 63.3527C366.656 63.0421 371.521 62.2142 374.109 61.4896C377.007 60.6616 385.08 59.937 393.982 59.8335L408.99 59.6265L419.547 54.5547C431.658 48.6549 451.634 39.857 467.884 33.2327C480.615 27.9539 484.031 26.4014 492.519 21.6401C507.216 13.3597 512.392 11.186 529.263 6.01074C546.134 0.83548 553.587 -0.096059 578.428 0.00744629C590.849 0.00744629 601.096 0.110972 601.199 0.214478ZM573.563 278.54C566.732 279.368 557.623 280.817 553.38 281.645C549.136 282.577 542.305 284.026 538.371 284.854C521.604 288.477 495.624 295.929 475.854 302.76C428.138 319.528 413.441 320.46 368.312 309.592C334.156 301.415 334.363 301.518 317.905 301.518C300.413 301.518 290.476 302.967 278.884 307.108C262.737 313.007 231.892 330.914 221.542 340.436C218.851 342.92 213.986 348.406 210.777 352.65C207.465 356.893 200.53 365.277 195.252 371.281C184.798 383.184 180.347 390.947 174.965 406.473C173.101 411.855 169.996 420.239 168.03 425.104C164.511 433.694 164.407 434.419 163.579 453.05C163.165 463.607 162.854 475.407 162.854 479.444C162.958 489.173 164.821 514.636 165.546 515.878C166.581 517.43 169.375 536.475 169.375 541.443C169.375 544.031 169.789 548.378 170.307 551.069C170.824 553.761 171.859 560.178 172.48 565.353C173.205 570.425 175.068 580.465 176.621 587.607C178.277 594.749 180.14 603.339 180.761 606.755C184.073 623.316 189.559 640.912 196.287 656.438C197.322 658.715 199.288 663.787 200.841 667.823C202.393 671.756 204.05 676 204.567 677.139C205.085 678.277 205.809 680.347 206.223 681.797C209.018 692.147 221.438 715.436 235.412 736.654C247.729 755.285 255.388 765.118 270.81 782.197C275.675 787.579 281.782 794.824 284.266 798.24C289.338 805.071 300.516 818.009 311.695 829.705C325.668 844.403 365.311 875.455 378.766 882.183C381.768 883.735 389.945 888.807 397.087 893.465C411.992 903.194 440.145 917.995 449.357 920.79C452.773 921.825 460.018 923.274 465.4 923.999C470.783 924.62 477.2 925.655 479.477 926.172C496.866 929.899 515.393 929.278 528.952 924.413C532.989 922.964 538.578 921.101 541.27 920.273C547.79 918.099 568.595 907.645 577.289 901.952C589.296 894.189 607.513 878.767 630.491 856.824C635.563 851.856 644.671 843.472 650.675 838.193C664.337 825.979 675.412 814.594 681.519 806.52C684.107 803.105 686.591 800.103 686.902 799.792C687.73 799.068 699.115 785.716 704.601 779.091C709.362 773.399 717.332 761.495 724.681 749.075C726.958 745.349 730.891 739.345 733.582 735.619C740.103 726.718 745.278 717.402 749.108 707.776C750.868 703.429 755.215 694.321 758.838 687.489C762.357 680.658 766.29 671.756 767.532 667.823C771.776 653.85 777.986 629.733 778.504 624.972C778.918 622.384 779.849 615.139 780.677 608.929C783.886 584.605 782.333 546.205 775.813 492.382C775.088 487 773.018 475.511 771.051 467.023C769.188 458.432 766.808 447.771 765.98 443.217C765.048 438.663 764.013 434.419 763.495 433.901C763.081 433.28 760.701 426.346 758.32 418.376C752.524 399.227 749.005 390.74 741.138 376.456C734.203 363.725 730.995 359.171 716.401 341.678C692.905 313.525 679.553 302.243 654.194 289.512C632.354 278.54 605.029 274.814 573.563 278.54ZM573.563 912.096C570.665 913.959 565.593 916.65 562.178 918.202C558.762 919.859 554.518 921.825 552.862 922.653C545.72 926.172 526.365 932.486 518.188 934.039C508.872 935.695 487.964 935.384 480.926 933.418C478.959 932.797 471.818 931.658 465.09 930.727C458.362 929.795 449.978 928.243 446.562 927.104C443.043 925.965 439.938 925.344 439.731 925.551C439.42 925.758 441.18 930.313 443.457 935.591C450.288 951.221 456.809 968.61 458.155 974.923C459.19 979.685 459.19 981.444 458.155 983.928C456.913 987.033 451.22 992.83 445.217 997.177L442.112 999.351L444.389 1002.56C446.976 1005.97 457.016 1020.98 467.988 1037.85C487.55 1067.87 513.013 1106.17 513.323 1106.17C513.944 1106.17 535.68 1072.94 542.408 1061.66C556.795 1037.44 576.979 1004.94 581.119 999.144C583.5 995.728 585.466 992.416 585.466 991.691C585.466 990.967 583.81 989.828 581.844 989.207C576.979 987.551 572.011 983.307 570.355 979.167C568.595 975.13 568.491 961.882 570.044 951.635C571.493 942.216 576.668 921.308 579.256 914.373C580.395 911.371 581.326 908.576 581.326 908.162C581.326 907.231 581.326 907.231 573.563 912.096ZM704.187 1123.14C693.94 1128.11 682.968 1131.63 671.997 1133.49C666.925 1134.42 662.578 1135.25 662.371 1135.56C662.164 1135.77 662.681 1146.33 663.509 1159.06C664.337 1171.79 665.372 1190.63 665.683 1200.88C667.029 1240.72 668.167 1254.28 671.065 1267.64C672.618 1274.78 673.963 1280.78 674.17 1280.99C674.895 1282.02 682.347 1273.74 689.179 1264.12C696.735 1253.56 702.117 1241.76 705.118 1228.82C706.878 1221.47 707.913 1192.8 706.671 1185.14C706.257 1182.24 706.257 1177.38 706.671 1174.38C707.085 1171.27 708.017 1163.92 708.534 1157.92C709.155 1151.92 710.087 1143.12 710.708 1138.25C712.157 1125.42 712.571 1119.62 712.053 1119.62C711.743 1119.62 708.224 1121.18 704.187 1123.14ZM373.281 1168.37C367.07 1169.82 360.963 1170.55 352.269 1170.55C345.645 1170.55 340.159 1170.96 340.159 1171.38C340.159 1172.62 353.097 1211.33 357.134 1222.3C359.1 1227.58 361.17 1233.58 361.792 1235.55C366.76 1252.42 374.523 1268.15 382.493 1277.47C385.908 1281.4 389.324 1284.71 389.945 1284.71C392.947 1284.71 397.087 1258.32 397.087 1239.48C397.087 1221.06 392.533 1187.21 387.771 1170.03C386.426 1165.48 385.701 1165.37 373.281 1168.37ZM653.159 1306.86C645.706 1308.73 636.701 1310.07 601.51 1314.73C595.196 1315.56 579.877 1316.49 567.353 1316.9C554.829 1317.32 543.443 1317.73 541.994 1317.84C539.614 1317.94 539.51 1318.35 539.717 1323.11C539.924 1325.91 540.442 1329.84 540.959 1331.81C542.512 1338.02 543.443 1357.17 543.443 1387.18C543.547 1412.44 543.236 1418.03 541.27 1430.66C538.578 1447.01 538.164 1452.5 539.199 1453.64C539.614 1454.05 542.408 1453.22 545.41 1451.98C552.138 1448.98 557.106 1448.15 559.073 1449.81C561.453 1451.77 559.797 1453.64 551.724 1457.67C547.48 1459.85 543.857 1461.81 543.65 1462.12C543.236 1462.74 541.373 1500.42 540.442 1527.95C540.131 1537.06 539.407 1554.76 538.889 1567.28C536.508 1618.62 537.957 1668.62 542.512 1698.74C546.031 1722.23 549.136 1753.8 549.757 1773.78C550.585 1802.86 550.999 1805.66 554.518 1809.18C559.073 1813.83 560.315 1813.32 575.116 1801.62C579.981 1797.69 595.61 1791.58 603.476 1790.44C617.346 1788.47 627.179 1792.3 640.324 1804.62C641.773 1805.97 644.671 1808.24 646.845 1809.8C650.468 1812.28 650.882 1812.28 652.538 1810.73C654.711 1808.55 654.504 1793.86 652.124 1782.78C650.364 1774.4 650.157 1742.73 651.813 1733.93C652.331 1731.03 653.262 1724.51 653.78 1719.44C655.229 1705.57 657.713 1693.15 662.164 1677C669.409 1650.4 673.342 1634.67 674.895 1625.25C675.723 1620.07 677.586 1609.62 678.932 1601.96C682.554 1582.5 683.382 1576.6 685.866 1551.76C687.005 1539.75 688.661 1522.98 689.593 1514.5C691.352 1497.52 693.112 1447.63 692.491 1435.31C691.249 1412.54 689.696 1397.54 687.419 1386.98C685.97 1380.46 684.831 1374.97 684.831 1374.76C684.831 1374.66 678.932 1374.76 671.583 1374.97C659.369 1375.49 657.92 1375.39 650.364 1372.8C634.528 1367.42 626.144 1362.45 616.311 1352.3C607.513 1343.4 605.236 1339.78 606.581 1336.47C607.202 1334.81 610.929 1334.29 611.55 1335.85C612.481 1338.54 627.075 1353.34 631.63 1356.24C646.12 1365.45 665.062 1370.42 678.104 1368.35L683.279 1367.52L682.968 1363.38C682.14 1353.24 673.963 1326.84 669.202 1319.18C667.546 1316.49 665.993 1312.97 665.579 1311.42C663.923 1303.76 664.751 1304.07 653.159 1306.86ZM400.813 1318.56C397.604 1323.63 384.666 1366.69 384.666 1372.49C384.666 1375.8 402.469 1377.35 412.716 1374.87C427.621 1371.45 435.384 1365.76 442.422 1353.24C445.941 1347.13 449.253 1343.71 450.806 1344.75C452.98 1345.99 451.841 1351.89 448.218 1358.41C441.18 1370.93 430.726 1378.8 417.374 1381.49C410.75 1382.84 395.12 1383.36 388.289 1382.53L384.149 1382.01L383.424 1387.18C378.663 1421.34 377.524 1438.94 378.042 1472.06C378.456 1494.11 381.872 1552.38 383.114 1556.42C383.321 1557.24 384.252 1568.63 385.184 1581.77C386.012 1594.82 387.254 1612.52 387.771 1621.11C388.392 1629.59 389.013 1638.91 389.324 1641.81C389.531 1644.6 390.255 1652.78 390.877 1659.92C391.498 1667.06 392.74 1679.28 393.568 1687.04C397.708 1725.34 398.225 1764.67 394.913 1786.2C391.29 1810.31 390.773 1820.35 392.947 1820.35C393.464 1820.35 396.466 1818.7 399.571 1816.73C420.272 1803.48 446.459 1798.1 469.54 1802.24C490.242 1805.97 498.625 1806.69 504.111 1805.24C506.906 1804.52 509.597 1803.28 510.115 1802.55C512.599 1798.72 516.842 1771.5 517.67 1754.11C518.602 1734.03 519.223 1723.99 520.258 1713.74C520.879 1708.36 521.604 1699.05 521.914 1693.04C522.225 1687.04 523.156 1677.41 523.984 1671.51C525.019 1664.79 525.64 1649.67 525.951 1630.11C527.296 1526.92 527.814 1507.77 530.091 1489.14C530.816 1482.62 531.747 1474.34 532.058 1470.82C532.679 1463.47 532.368 1463.05 524.605 1461.81C518.188 1460.88 496.452 1449.18 496.452 1446.7C496.452 1444.73 501.11 1445.67 513.013 1449.81C526.572 1454.57 534.749 1456.02 534.852 1453.84C534.956 1450.74 535.887 1442.77 536.819 1436.14C538.578 1424.55 538.785 1425.07 532.368 1426.72C526.054 1428.38 522.535 1427.97 517.981 1425.07C513.944 1422.58 512.495 1420.51 510.943 1414.51C509.493 1409.33 509.494 1383.56 510.839 1370.11C511.253 1365.24 511.564 1357.48 511.46 1352.72C511.253 1346.2 511.564 1344.23 512.599 1344.23C514.979 1344.23 515.393 1348.99 514.462 1364.31C513.116 1386.15 513.323 1410.27 514.876 1415.34C516.635 1421.34 520.983 1424.24 527.917 1424.24C535.163 1424.24 538.475 1421.96 539.51 1416.37C539.924 1413.99 540.235 1400.12 540.131 1385.63C540.028 1361 539.614 1351.27 538.164 1338.54C537.854 1335.64 537.543 1332.22 537.44 1330.77C537.233 1329.33 536.819 1326.01 536.405 1323.22L535.577 1318.35L507.941 1318.25C492.829 1318.25 467.16 1318.15 450.91 1318.25C434.659 1318.25 417.891 1317.84 413.648 1317.42C409.404 1317.01 405.057 1316.49 404.125 1316.39C403.09 1316.39 401.641 1317.32 400.813 1318.56ZM591.677 1802.14C584.017 1804.93 571.079 1813.52 570.976 1815.9C570.976 1818.91 582.775 1825.32 593.229 1827.91C601.924 1830.19 610.722 1830.81 618.588 1829.67C626.454 1828.53 630.802 1826.67 635.149 1822.32C639.703 1817.66 639.289 1814.66 633.286 1809.07C621.072 1797.58 609.273 1795.62 591.677 1802.14ZM444.492 1809.07C432.382 1810.83 416.96 1816.21 412.923 1819.94C405.781 1826.77 410.439 1830.7 425.758 1830.81C439.524 1830.91 459.293 1827.5 466.228 1823.87C467.781 1823.05 469.748 1822.42 470.576 1822.42C472.439 1822.42 485.998 1815.59 487.964 1813.73C489.103 1812.59 488.482 1812.28 484.342 1811.66C481.651 1811.35 475.44 1810.42 470.576 1809.59C459.501 1807.73 453.911 1807.62 444.492 1809.07ZM490.759 1816.83C484.031 1821.8 469.954 1827.5 455.05 1831.33C445.941 1833.6 441.801 1834.12 429.173 1834.22C412.613 1834.33 408.369 1833.19 406.299 1827.91C405.471 1825.63 405.16 1825.53 403.608 1826.67C397.501 1831.84 384.666 1855.65 384.666 1861.86C384.666 1867.86 385.287 1868.17 397.19 1867.86C403.09 1867.76 412.716 1867.76 418.512 1867.97C428.138 1868.17 429.38 1867.97 432.486 1865.79C434.349 1864.45 436.108 1863.1 436.419 1862.79C436.729 1862.38 439.524 1860.1 442.629 1857.62C450.392 1851.61 458.362 1847.99 473.163 1844.16C479.994 1842.4 487.033 1840.23 488.792 1839.5C497.694 1835.36 501.731 1825.53 498.004 1816.63C496.348 1812.69 496.245 1812.69 490.759 1816.83ZM637.944 1824.7C629.249 1833.81 611.446 1836.5 591.677 1831.64C585.156 1830.08 574.598 1824.91 570.355 1821.18C566.214 1817.56 564.972 1817.97 566.835 1822.42C568.595 1826.56 574.805 1832.05 581.533 1835.26C585.259 1837.02 590.538 1841.47 597.784 1848.71C603.683 1854.72 610.515 1860.62 612.999 1861.86C617.035 1864.03 617.553 1864.14 619.313 1862.69C621.486 1860.82 635.252 1854.51 637.115 1854.51C637.737 1854.51 640.221 1853.58 642.394 1852.44C647.052 1850.06 662.992 1846.02 664.337 1846.85C666.718 1848.4 664.544 1843.95 659.99 1837.95C657.092 1834.22 652.434 1828.12 649.536 1824.29C643.843 1816.63 641.98 1815.39 641.566 1818.91C641.359 1820.25 639.703 1822.84 637.944 1824.7ZM648.087 1854.51C646.949 1855.03 643.947 1856.27 641.359 1857.41C638.772 1858.44 634.631 1860.2 632.044 1861.24C622.211 1865.38 621.59 1867.35 631.009 1864.45C639.496 1861.76 658.955 1852.65 658.955 1851.2C658.955 1850.47 652.331 1852.44 648.087 1854.51ZM395.534 1872.31C394.396 1873.45 403.194 1874.38 407.644 1873.56L412.095 1872.73L407.955 1872.11C402.469 1871.38 396.362 1871.38 395.534 1872.31Z" fill="black"/>
<path d="M662.888 432.452C665.993 432.97 671.79 434.626 675.826 436.075C679.967 437.524 689.386 440.733 696.941 443.113C713.295 448.496 715.779 449.945 724.37 459.053C733.789 469.093 736.481 475.821 733.065 480.479C730.581 483.998 725.509 482.963 711.743 476.028C697.563 469.093 691.352 467.127 679.553 465.988C670.651 465.16 652.227 466.816 639.289 469.611C634.424 470.646 625.109 472.095 618.588 472.716C612.067 473.337 601.303 474.786 594.782 475.925C557.002 482.549 544.375 481.514 539.51 471.267C537.44 466.92 537.336 455.327 539.303 450.669C542.719 442.492 551.103 438.87 562.488 440.733C570.148 441.975 576.254 441.457 596.852 437.628C602.855 436.489 612.792 434.626 619.002 433.384C631.112 431.21 652.331 430.693 662.888 432.452Z" fill="black"/>
<path d="M369.244 469.61C372.66 470.956 374.419 474.682 375.04 482.238C375.558 487.31 375.247 488.759 372.867 492.899C366.139 504.388 353.615 508.425 321.528 509.46C284.059 510.805 274.64 512.772 251.972 523.951C236.55 531.714 230.857 535.336 218.954 545.169C215.435 548.067 210.881 550.655 207.258 551.794C201.772 553.553 201.255 553.553 199.495 551.897C196.183 548.999 196.287 545.583 200.013 537.82C211.295 514.221 219.265 506.148 244.417 492.485C258.597 484.722 277.331 478.408 292.133 476.338C298.343 475.407 307.141 473.958 311.695 473.13C327.738 470.231 365 467.954 369.244 469.61Z" fill="black"/>
<path d="M646.017 506.355C671.686 509.977 694.768 518.361 714.227 531.093C725.302 538.234 733.789 546.308 732.858 548.585C732.03 550.966 730.167 550.759 726.854 548.171L724.06 545.894L720.748 548.999C712.674 556.555 710.604 558.107 700.978 564.525C675.309 581.603 644.464 591.643 612.171 593.61C589.089 594.955 572.528 592.264 558.037 584.708C549.239 580.154 542.615 573.737 537.44 564.835C532.886 557.072 532.989 555.106 538.475 546.101C550.171 526.849 570.562 513.6 597.059 507.907C609.997 505.113 632.458 504.388 646.017 506.355ZM645.499 513.704C645.499 514.118 647.155 516.188 649.226 518.465C659.059 529.436 661.232 547.239 654.297 561.316C651.606 566.905 644.775 574.668 638.254 579.637L634.631 582.328L640.324 580.775C654.401 576.738 671.479 570.425 680.588 565.87C690.731 560.799 714.33 545.79 716.711 542.892C717.85 541.443 717.021 540.615 710.501 536.475C694.664 526.642 677.172 519.603 657.92 515.256C648.294 513.083 645.499 512.772 645.499 513.704ZM567.042 528.505C559.59 533.577 550.999 542.375 546.445 549.516C541.27 557.486 542.098 561.73 550.275 569.804C557.416 576.945 570.355 582.224 586.191 584.501C598.301 586.261 599.647 585.64 592.401 581.603C584.017 576.842 579.049 572.081 575.426 565.146C569.216 553.553 568.595 540.926 573.563 529.851C576.668 523.123 575.323 522.812 567.042 528.505Z" fill="black"/>
<path d="M363.344 536.889C381.354 539.787 402.262 549.517 410.853 559.143C415.614 564.525 409.507 580.154 397.915 592.368C380.215 610.895 351.855 623.316 317.388 627.456C289.855 630.872 265.428 628.077 245.451 619.383C237.275 615.864 233.134 613.069 226.096 606.445C221.645 602.097 221.128 601.89 219.575 603.546C217.505 605.616 214.296 605.72 213.572 603.753C212.537 601.166 216.988 596.198 231.478 583.57C248.039 569.286 266.463 558.108 292.029 546.722C296.79 544.652 310.867 540.408 319.458 538.442C328.566 536.371 354.339 535.543 363.344 536.889ZM349.474 545.997C361.895 554.588 368.105 565.56 368.105 579.016C368.105 588.538 365.311 596.198 359.1 603.857C353.511 610.688 354.442 610.585 368.416 603.339C379.387 597.647 392.015 587.607 397.397 580.465C402.365 573.944 405.781 565.456 404.436 562.972C403.193 560.592 388.703 552.208 381.043 549.413C372.556 546.411 361.688 544.341 353.614 544.238C346.99 544.238 346.887 544.238 349.474 545.997ZM251.144 576.117C240.38 583.673 226.303 595.473 226.303 596.922C226.303 598.475 232.513 604.064 238.206 607.79C245.451 612.448 255.698 616.278 266.877 618.658C277.952 621.039 304.242 622.488 308.072 620.935C310.453 620.107 310.142 619.797 304.449 618.141C293.685 615.035 283.438 607.687 277.331 598.475C272.052 590.608 270.293 576.221 273.398 567.423C274.226 565.146 274.95 562.869 274.95 562.455C274.95 561.109 261.081 569.079 251.144 576.117Z" fill="black"/>
<path d="M460.639 593.713C461.053 594.23 462.295 597.646 463.434 601.269C467.677 614.103 467.263 644.12 462.606 658.093C461.053 662.854 460.329 663.682 457.948 663.993C454.015 664.407 453.29 660.888 455.567 651.986C458.259 641.118 458.88 615.656 456.706 606.548C454.429 597.336 454.739 593.402 457.844 592.988C458.983 592.781 460.329 593.092 460.639 593.713Z" fill="black"/>
<path d="M353.739 727.977C354.991 726.6 353.335 723.739 351.104 723.297C347.013 722.45 346.256 728.016 350.311 729.235C352.13 729.781 352.402 729.634 353.739 727.977Z" fill="black"/>
<path d="M333.2 677.843C334.453 676.465 332.796 673.604 330.566 673.163C326.475 672.315 325.717 677.881 329.773 679.1C331.591 679.646 331.864 679.499 333.2 677.843Z" fill="black"/>
<path d="M345.02 657.687C346.272 656.31 344.616 653.449 342.385 653.007C338.295 652.159 337.537 657.726 341.593 658.945C343.411 659.491 343.684 659.344 345.02 657.687Z" fill="black"/>
<path d="M541.684 671.653C546.755 676.828 548.204 680.244 548.204 686.454C548.204 704.775 530.712 717.713 500.902 721.646C476.372 724.855 466.332 722.992 451.116 712.641C445.32 708.604 440.559 700.427 440.559 694.114C440.559 687.593 443.25 679.105 446.045 677.139C448.839 675.172 452.876 675.069 453.601 677.035C453.911 677.863 453.394 680.037 452.462 681.797C451.53 683.66 450.495 687.593 450.185 690.698C449.357 698.254 452.151 701.773 462.916 707.155C470.679 710.985 471.714 711.296 482.479 711.606C500.385 712.227 519.326 708.087 530.298 701.048C534.024 698.668 538.268 691.526 539.303 686.04C539.82 683.039 539.303 681.486 536.301 676.828C529.987 667.409 533.921 663.683 541.684 671.653Z" fill="black"/>
<path d="M617.76 734.274C618.692 741.933 616.932 752.491 613.102 762.013C611.136 767.085 607.72 775.986 605.65 781.679C603.476 787.372 600.889 793.893 599.647 796.17C591.987 811.385 578.014 829.292 567.87 836.951C560.315 842.747 537.44 855.685 534.749 855.685C533.921 855.685 531.851 856.41 530.195 857.238C526.882 858.998 509.493 863.759 506.285 863.759C505.146 863.759 500.281 863.862 495.417 863.966C485.17 864.173 478.131 863.034 459.707 858.273C444.803 854.34 426.586 847.198 418.719 842.23C413.027 838.504 401.537 826.6 399.157 821.943C398.329 820.287 396.155 816.767 394.292 813.973C392.429 811.282 390.876 808.901 390.876 808.591C390.876 808.384 389.22 805.589 387.254 802.484C385.287 799.379 383.631 796.48 383.631 796.066C383.631 795.652 381.768 792.858 379.594 789.96C377.317 786.958 373.591 780.955 371.417 776.711C369.14 772.364 366.242 767.809 365.104 766.464C363.862 765.222 361.688 762.117 360.446 759.736C358.169 755.699 358.065 755.285 359.721 753.94C360.653 753.112 363.655 752.18 366.553 751.87C369.347 751.559 374.73 750.731 378.456 750.214C388.496 748.557 398.329 747.108 411.06 745.452C417.27 744.728 425.447 743.486 429.173 742.865C442.629 740.588 445.631 740.795 462.813 744.521L479.477 748.143L485.687 745.97C488.999 744.728 495.003 742.968 499.039 741.933C506.492 740.07 507.009 740.07 539.406 741.209C562.902 741.933 593.126 738.207 602.855 733.135C604.718 732.204 607.72 731.479 609.583 731.583C611.343 731.583 613.93 731.376 615.069 730.962C617.035 730.341 617.346 730.755 617.76 734.274ZM573.356 753.215C564.248 755.492 555.553 757.355 554.104 757.355C552.759 757.355 548.411 757.976 544.478 758.804C540.545 759.633 533.817 760.875 529.573 761.496C525.33 762.117 518.084 763.255 513.53 764.083C483.721 769.259 475.544 769.88 442.112 769.776C409.3 769.776 391.601 767.809 372.142 761.91C370.589 761.496 370.486 761.806 371.624 765.015C373.281 769.88 381.975 779.713 391.601 787.475L399.467 793.893L413.544 792.547C428.242 791.202 430.001 790.995 442.629 790.063C446.873 789.753 454.118 789.028 458.672 788.407C466.228 787.579 470.161 787.165 488.171 785.819C491.277 785.509 500.385 784.681 508.355 783.749C516.325 782.921 526.054 781.99 530.091 781.679C544.789 780.437 547.997 780.127 563.213 778.574C589.607 775.883 589.193 775.986 598.715 766.257C608.03 756.734 611.239 751.145 612.067 743.382L612.688 737.896L601.406 743.486C592.505 747.936 586.501 750.007 573.356 753.215ZM568.388 745.452C555.864 746.798 543.029 746.798 517.153 745.452C507.216 744.935 492.519 747.833 486.515 751.352C484.031 752.801 481.961 753.215 478.649 752.801C471.921 752.077 463.434 750.317 457.12 748.35C450.495 746.384 437.04 746.177 429.587 747.936C426.793 748.661 422.653 749.282 420.375 749.489C418.098 749.696 412.302 750.421 407.437 751.145C402.573 751.87 397.19 752.594 395.534 752.698C389.634 753.215 376.075 755.285 375.661 755.699C374.833 756.527 378.87 758.183 383.114 758.804C385.391 759.219 389.738 760.15 392.947 760.978C396.052 761.703 404.022 762.738 410.542 763.255C432.796 764.808 484.342 763.773 491.898 761.599C493.657 761.082 496.969 760.668 499.35 760.668C501.627 760.668 504.525 760.047 505.664 759.529C506.802 758.908 509.079 758.39 510.839 758.39C512.495 758.39 516.118 757.976 518.912 757.459C525.744 756.113 540.856 753.629 550.275 752.18C561.143 750.628 586.812 744.935 587.95 743.796C588.468 743.279 587.433 743.175 585.363 743.486C583.396 743.693 575.737 744.624 568.388 745.452ZM597.99 774.33C595.506 776.711 592.194 779.713 590.642 781.162C579.049 792.03 565.904 800.207 546.652 808.591C544.892 809.315 540.235 811.385 536.301 813.248C524.088 818.838 523.053 819.252 515.083 821.529C493.347 827.739 480.719 829.292 466.953 827.428C459.811 826.497 438.489 820.701 437.04 819.355C436.419 818.838 435.384 818.424 434.556 818.424C430.726 818.424 403.918 803.933 394.81 796.998C391.601 794.514 388.703 792.547 388.289 792.547C387.875 792.547 388.496 794.1 389.634 795.859C390.773 797.722 392.74 801.138 393.982 803.312C395.224 805.589 397.294 808.798 398.536 810.557C399.778 812.317 401.537 815.111 402.366 816.871C403.09 818.527 404.436 820.597 405.057 821.322C405.781 822.046 406.402 823.081 406.402 823.495C406.402 824.53 412.509 830.844 417.788 835.088C422.032 838.504 430.208 843.368 432.796 843.886C433.314 843.989 437.247 845.542 441.491 847.301C445.734 849.061 450.599 850.821 452.255 851.131C453.911 851.338 456.085 851.959 457.016 852.477C457.948 852.891 460.949 853.926 463.848 854.547C466.642 855.271 469.747 856.099 470.575 856.306C479.063 858.377 482.686 858.894 493.14 858.998C503.801 859.101 506.802 858.791 518.188 855.789C525.226 853.926 531.54 852.063 532.161 851.649C532.679 851.131 534.749 850.407 536.508 849.993C538.371 849.682 540.131 848.854 540.442 848.337C540.856 847.819 543.029 846.473 545.41 845.438C558.037 839.642 572.735 827.635 581.119 816.25C589.71 804.554 599.957 786.854 599.957 783.542C599.957 782.818 600.889 780.23 601.924 777.746C603.062 775.365 604.201 772.26 604.615 770.915C605.546 767.913 604.304 768.534 597.99 774.33Z" fill="black"/>
</svg>
